<svg width="34" height="42" viewBox="0 0 34 42" fill="none" xmlns="http://www.w3.org/2000/svg">
<path d="M15.1228 40.323L4.24232 28.0692C-2.46557 20.5162 -1.03948 8.7906 7.25295 3.08625C13.0101 -0.875104 20.6159 -0.875104 26.3731 3.08625C34.6655 8.84341 36.0916 20.5162 29.3837 28.0692L18.5032 40.323C17.6053 41.3793 16.0207 41.3793 15.1228 40.323Z" fill="url(#paint0_linear_1_422)"/>
<path d="M16.8129 26.0096C21.8886 26.0096 26.0032 21.8949 26.0032 16.8192C26.0032 11.7436 21.8886 7.62891 16.8129 7.62891C11.7372 7.62891 7.62256 11.7436 7.62256 16.8192C7.62256 21.8949 11.7372 26.0096 16.8129 26.0096Z" fill="white"/>
<defs>
<linearGradient id="paint0_linear_1_422" x1="-4.87923e-07" y1="41.1152" x2="41.1089" y2="30.6859" gradientUnits="userSpaceOnUse">
<stop stop-color="#FF5700"/>
<stop offset="0.411458" stop-color="#FFB43A"/>
<stop offset="1" stop-color="#FFCC49"/>
</linearGradient>
</defs>
</svg>
