<svg width="315" height="94" viewBox="0 0 315 94" fill="none" xmlns="http://www.w3.org/2000/svg">
<path fill-rule="evenodd" clip-rule="evenodd" d="M133.071 42.5952H123.85C122.9 42.5952 122.101 42.5162 121.453 42.3582C120.459 42.1212 119.775 41.5917 119.401 40.7701C119.128 40.1537 118.991 39.2213 118.991 37.973V29.9373C118.991 28.1358 119.408 26.9189 120.243 26.2868C120.92 25.7811 122.122 25.5283 123.85 25.5283H133.071V29.9373H123.85V37.973H133.071V42.5952ZM148.426 29.9373H143.675V42.5952H138.794V29.9373H134.043V25.5283H148.426V29.9373ZM164.17 37.973C164.17 39.814 163.774 41.0703 162.982 41.738C162.291 42.3108 161.081 42.5952 159.354 42.5952H153.998C152.27 42.5952 151.061 42.3108 150.37 41.738C149.578 41.0703 149.182 39.814 149.182 37.973V29.9373C149.182 28.1832 149.607 26.9822 150.456 26.3342C151.147 25.797 152.328 25.5283 153.998 25.5283H159.354C161.024 25.5283 162.204 25.797 162.895 26.3342C163.745 26.9822 164.17 28.1832 164.17 29.9373V37.973ZM159.354 37.973V29.9373H153.998V37.973H159.354ZM185.722 42.5952H180.928L180.021 34.9625C179.964 34.4727 179.935 33.9116 179.935 33.2795H179.892L177.862 42.5952H173.801L171.771 33.2795H171.728C171.728 33.7852 171.692 34.3463 171.62 34.9625L170.735 42.5952H165.941L168.143 25.5283H173.909L175.486 32.3551C175.702 33.2875 175.81 34.0934 175.81 34.7729H175.853C175.853 34.0934 175.961 33.2875 176.177 32.3551L177.754 25.5283H183.52L185.722 42.5952ZM202.139 42.5952H197.323V35.7685H191.967V42.5952H187.151V29.7476C187.151 28.0726 187.59 26.9189 188.469 26.2868C189.174 25.7811 190.34 25.5283 191.967 25.5283H202.139V42.5952ZM197.323 32.3551V29.7476H191.967V32.3551H197.323ZM217.857 29.9373H213.106V42.5952H208.226V29.9373H203.474V25.5283H217.857V29.9373ZM233.601 37.973C233.601 39.814 233.205 41.0703 232.413 41.738C231.722 42.3108 230.513 42.5952 228.785 42.5952H223.429C221.701 42.5952 220.492 42.3108 219.801 41.738C219.009 41.0703 218.613 39.814 218.613 37.973V29.9373C218.613 28.1832 219.038 26.9822 219.887 26.3342C220.578 25.797 221.759 25.5283 223.429 25.5283H228.785C230.455 25.5283 231.636 25.797 232.327 26.3342C233.176 26.9822 233.601 28.1832 233.601 29.9373V37.973ZM228.785 37.973V29.9373H223.429V37.973H228.785ZM250.017 42.5952H245.137V29.9373H240.623V37.973C240.623 39.7903 240.407 40.9913 239.975 41.576C239.486 42.2555 238.435 42.5952 236.822 42.5952H234.403V37.973H235.872V29.7476C235.872 28.0884 236.282 26.9426 237.103 26.3105C237.78 25.789 238.91 25.5283 240.494 25.5283H250.017V42.5952ZM266.772 37.973C266.772 39.814 266.376 41.0703 265.585 41.738C264.894 42.3108 263.684 42.5952 261.956 42.5952H256.601C254.873 42.5952 253.664 42.3108 252.973 41.738C252.181 41.0703 251.785 39.814 251.785 37.973V29.9373C251.785 28.1832 252.209 26.9822 253.059 26.3342C253.75 25.797 254.93 25.5283 256.601 25.5283H261.956C263.627 25.5283 264.807 25.797 265.498 26.3342C266.348 26.9822 266.772 28.1832 266.772 29.9373V37.973ZM261.956 37.973V29.9373H256.601V37.973H261.956ZM281.479 29.9373H273.359V42.5952H268.478V25.5283H281.479V29.9373ZM297.763 42.5952H293.076V32.9477L287.461 42.5952H282.753V25.5283H287.461V35.1759L293.076 25.5283H297.763V42.5952ZM314.586 42.5952H309.9V32.9477L304.285 42.5952H299.577V25.5283H304.285V35.1759L309.9 25.5283H314.586V42.5952Z" fill="url(#paint0_linear_1_405)"/>
<path fill-rule="evenodd" clip-rule="evenodd" d="M192.727 19.914H178.658C177.125 19.914 175.962 19.7774 175.168 19.5041C173.924 19.0851 173.139 18.2926 172.814 17.1267C172.634 16.4527 172.544 15.6056 172.544 14.5854V0.239258H178.658V14.5854H184.773V0.239258H190.888V14.5854H192.727V19.914ZM210.206 19.914H193.701V0.239258H210.206V5.32193H199.816V7.89055H209.286V12.0441H199.816V14.5854H210.206V19.914ZM230.985 19.914H224.87V12.0441H218.295V19.914H212.181V0.239258H218.295V7.89055H224.87V0.239258H230.985V19.914ZM250.681 5.32193H244.729V19.914H238.614V5.32193H232.662V0.239258H250.681V5.32193ZM270.784 7.89055C270.784 10.7689 269.251 12.208 266.184 12.208H258.392V19.914H252.359V0.239258H265.508C267.456 0.239258 268.822 0.599021 269.607 1.31865C270.392 2.03827 270.784 3.3726 270.784 5.32193V7.89055ZM264.751 8.02717V5.32193H258.392V8.02717H264.751Z" fill="url(#paint1_linear_1_405)"/>
<path fill-rule="evenodd" clip-rule="evenodd" d="M125.605 61.1271H123.252V56.339L120.432 61.1271H118.069V52.6565H120.432V57.4447L123.252 52.6565H125.605V61.1271ZM134.051 61.1271H131.601V57.7389H128.966V61.1271H126.515V52.6565H128.966V55.9507H131.601V52.6565H134.051V61.1271ZM142.498 61.1271H140.047V57.7389H137.413V61.1271H134.962V52.6565H137.413V55.9507H140.047V52.6565H142.498V61.1271ZM150.88 58.833C150.88 59.7468 150.681 60.3703 150.283 60.7017C149.936 60.986 149.329 61.1271 148.462 61.1271H145.773C144.905 61.1271 144.298 60.986 143.951 60.7017C143.553 60.3703 143.355 59.7468 143.355 58.833V54.8448C143.355 53.9741 143.568 53.3781 143.994 53.0565C144.341 52.7898 144.934 52.6565 145.773 52.6565H148.462C149.3 52.6565 149.893 52.7898 150.24 53.0565C150.666 53.3781 150.88 53.9741 150.88 54.8448V58.833ZM148.462 58.833V54.8448H145.773V58.833H148.462ZM159.305 59.2213C159.305 59.8801 159.178 60.3625 158.925 60.6683C158.672 60.9742 158.246 61.1271 157.646 61.1271H151.769V52.6565H157.667C158.231 52.6565 158.645 52.784 158.909 53.0388C159.173 53.2938 159.305 53.7231 159.305 54.327V55.5272C159.305 55.8095 159.25 56.0409 159.142 56.2213C159.055 56.3624 158.893 56.5271 158.654 56.7154C158.929 56.8251 159.11 56.9938 159.196 57.2213C159.268 57.3938 159.305 57.6604 159.305 58.0213V59.2213ZM156.898 55.9742V54.9506H154.198V55.9742H156.898ZM156.898 58.8096V57.6683H154.198V58.8096H156.898ZM167.688 61.1271H165.27V57.7389H162.581V61.1271H160.163V54.7506C160.163 53.9192 160.384 53.3467 160.824 53.033C161.179 52.782 161.764 52.6565 162.581 52.6565H167.688V61.1271ZM165.27 56.0448V54.7506H162.581V56.0448H165.27ZM176.719 61.1271H171.08C170.466 61.1271 170 61.0684 169.682 60.9507C169.183 60.7704 168.868 60.4291 168.738 59.9272C168.666 59.637 168.63 59.2723 168.63 58.833V52.6565H171.08V58.833H173.531V52.6565H175.981V58.833H176.719V61.1271ZM184.645 61.1271H182.292V56.339L179.473 61.1271H177.109V52.6565H179.473V57.4447L182.292 52.6565H184.645V61.1271ZM193.027 58.833C193.027 59.7468 192.828 60.3703 192.43 60.7017C192.083 60.986 191.476 61.1271 190.609 61.1271H187.92C187.052 61.1271 186.445 60.986 186.098 60.7017C185.7 60.3703 185.502 59.7468 185.502 58.833V54.8448C185.502 53.9741 185.715 53.3781 186.141 53.0565C186.488 52.7898 187.081 52.6565 187.92 52.6565H190.609C191.447 52.6565 192.04 52.7898 192.387 53.0565C192.813 53.3781 193.027 53.9741 193.027 54.8448V58.833ZM190.609 58.833V54.8448H187.92V58.833H190.609ZM201.419 61.1271H198.969V57.7389H196.334V61.1271H193.883V52.6565H196.334V55.9507H198.969V52.6565H201.419V61.1271ZM209.866 61.1271H207.415V57.7389H204.781V61.1271H202.33V52.6565H204.781V55.9507H207.415V52.6565H209.866V61.1271ZM220.915 61.1271H218.497V52.6565H220.915V61.1271ZM217.857 59.1507C217.857 60.4684 217.235 61.1271 215.992 61.1271H210.777V52.6565H213.195V55.9507H215.851C216.589 55.9507 217.091 56.0526 217.358 56.2565C217.691 56.5154 217.857 57.0251 217.857 57.786V59.1507ZM215.461 58.833V57.7389H213.195V58.833H215.461ZM229.362 61.1271H226.944V57.6683H224.244V61.1271H221.826V57.6683C221.826 57.1507 221.992 56.7388 222.325 56.433C222.657 56.1272 223.065 55.9742 223.55 55.9742L221.826 52.6565H224.244L225.599 55.8095L226.944 52.6565H229.362L227.638 55.9742C228.129 55.9742 228.534 56.1193 228.852 56.4095C229.192 56.7231 229.362 57.1428 229.362 57.6683V61.1271ZM241.983 54.8448H239.597V61.1271H237.147V54.8448H234.761V52.6565H241.983V54.8448ZM249.269 61.1271H242.655V52.6565H249.269V54.8448H245.106V55.9507H248.901V57.7389H245.106V58.833H249.269V61.1271ZM257.597 61.1271H255.179V57.6683H252.479V61.1271H250.061V57.6683C250.061 57.1507 250.227 56.7388 250.56 56.433C250.892 56.1272 251.301 55.9742 251.785 55.9742L250.061 52.6565H252.479L253.834 55.8095L255.179 52.6565H257.597L255.873 55.9742C256.364 55.9742 256.769 56.1193 257.087 56.4095C257.427 56.7231 257.597 57.1428 257.597 57.6683V61.1271ZM265.957 61.1271H263.506V57.7389H260.871V61.1271H258.421V52.6565H260.871V55.9507H263.506V52.6565H265.957V61.1271ZM274.339 58.833C274.339 59.7468 274.14 60.3703 273.742 60.7017C273.395 60.986 272.788 61.1271 271.921 61.1271H269.231C268.364 61.1271 267.757 60.986 267.41 60.7017C267.012 60.3703 266.814 59.7468 266.814 58.833V54.8448C266.814 53.9741 267.027 53.3781 267.453 53.0565C267.8 52.7898 268.393 52.6565 269.231 52.6565H271.921C272.759 52.6565 273.352 52.7898 273.699 53.0565C274.125 53.3781 274.339 53.9741 274.339 54.8448V58.833ZM271.921 58.833V54.8448H269.231V58.833H271.921ZM282.581 61.1271H280.131V54.8448H277.864V58.833C277.864 59.735 277.756 60.3311 277.539 60.6212C277.293 60.9585 276.766 61.1271 275.956 61.1271H274.741V58.833H275.479V54.7506C275.479 53.9271 275.685 53.3585 276.097 53.0448C276.437 52.7859 277.004 52.6565 277.799 52.6565H282.581V61.1271ZM290.993 58.833C290.993 59.7468 290.795 60.3703 290.397 60.7017C290.05 60.986 289.443 61.1271 288.575 61.1271H285.886C285.019 61.1271 284.412 60.986 284.065 60.7017C283.667 60.3703 283.468 59.7468 283.468 58.833V54.8448C283.468 53.9741 283.682 53.3781 284.108 53.0565C284.455 52.7898 285.048 52.6565 285.886 52.6565H288.575C289.414 52.6565 290.007 52.7898 290.354 53.0565C290.78 53.3781 290.993 53.9741 290.993 54.8448V58.833ZM288.575 58.833V54.8448H285.886V58.833H288.575ZM298.378 54.8448H294.301V61.1271H291.85V52.6565H298.378V54.8448ZM306.553 61.1271H304.2V56.339L301.381 61.1271H299.017V52.6565H301.381V57.4447L304.2 52.6565H306.553V61.1271ZM313.07 50.5977C313.07 51.1309 312.99 51.5153 312.831 51.7506C312.643 52.0408 312.314 52.1859 311.845 52.1859H310.619C310.157 52.1859 309.831 52.0408 309.643 51.7506C309.477 51.4996 309.394 51.1152 309.394 50.5977H310.619V51.2917H311.845V50.5977H313.07ZM315 61.1271H312.647V56.339L309.828 61.1271H307.464V52.6565H309.828V57.4447L312.647 52.6565H315V61.1271Z" fill="url(#paint2_linear_1_405)"/>
<path d="M150.522 72.9935L149.666 79.4307L156.79 72.9935H156.879L155.673 81.9495H154.532L155.38 75.57L148.346 81.9495H148.208L149.381 72.9935H150.522Z" fill="url(#paint3_linear_1_405)"/>
<path d="M168.754 72.9935H169.08L170.67 81.9495H169.553L168.428 75.2984L164.223 81.9495H163.889L161.419 75.3395L158.615 81.9495H157.474L161.321 72.9935H161.631L164.313 80.0398L168.754 72.9935Z" fill="url(#paint4_linear_1_405)"/>
<path d="M173.694 80.1715C173.971 80.1715 174.204 80.2703 174.394 80.4679C174.59 80.6654 174.688 80.9014 174.688 81.1758C174.688 81.4502 174.59 81.6861 174.394 81.8837C174.204 82.0813 173.971 82.18 173.694 82.18C173.416 82.18 173.18 82.0813 172.984 81.8837C172.794 81.6861 172.699 81.4502 172.699 81.1758C172.699 80.9014 172.794 80.6654 172.984 80.4679C173.18 80.2703 173.416 80.1715 173.694 80.1715Z" fill="url(#paint5_linear_1_405)"/>
<path d="M177.434 69.8408H184.599L184.444 70.9932H181.387L179.945 81.9495H178.747L180.189 70.9932H177.28L177.434 69.8408Z" fill="url(#paint6_linear_1_405)"/>
<path d="M186.595 72.9935L185.74 79.4307L192.863 72.9935H192.953L191.746 81.9495H190.605L191.453 75.57L184.419 81.9495H184.281L185.454 72.9935H186.595Z" fill="url(#paint7_linear_1_405)"/>
<path d="M194.428 72.9935H195.716L197.875 76.492L200.41 72.9935H201.779L198.495 77.5045L201.176 81.9495H199.88L197.778 78.5087L195.275 81.9495H193.906L197.158 77.5045L194.428 72.9935Z" fill="url(#paint8_linear_1_405)"/>
<path d="M207.697 72.763C208.452 72.763 209.145 72.9469 209.775 73.3146C210.405 73.6768 210.897 74.1844 211.25 74.8374C211.603 75.485 211.78 76.2203 211.78 77.0435C211.78 77.9819 211.554 78.8545 211.103 79.6612C210.652 80.4624 210.047 81.0825 209.286 81.5215C208.525 81.9605 207.664 82.18 206.702 82.18C205.512 82.18 204.532 81.7877 203.76 81.0029C202.994 80.2127 202.611 79.2084 202.611 77.9901C202.611 77.0353 202.836 76.1545 203.287 75.3478C203.738 74.5411 204.355 73.91 205.137 73.4545C205.925 72.9935 206.778 72.763 207.697 72.763ZM207.672 73.8579C206.966 73.8579 206.3 74.0362 205.675 74.3929C205.056 74.7496 204.578 75.2408 204.241 75.8664C203.909 76.4865 203.744 77.1725 203.744 77.9243C203.744 78.8682 204.032 79.6365 204.608 80.2291C205.184 80.8163 205.928 81.1099 206.841 81.1099C207.553 81.1099 208.196 80.9398 208.772 80.5996C209.354 80.2538 209.816 79.7572 210.158 79.1096C210.5 78.4621 210.671 77.7679 210.671 77.027C210.671 76.4069 210.544 75.8581 210.288 75.3807C210.033 74.8978 209.672 74.5246 209.204 74.2612C208.737 73.9923 208.226 73.8579 207.672 73.8579Z" fill="url(#paint9_linear_1_405)"/>
<path d="M215.309 76.5496H220.444L220.949 72.9935H222.098L220.867 81.9495H219.718L220.305 77.6362H215.162L214.575 81.9495H213.426L214.657 72.9935H215.806L215.309 76.5496Z" fill="url(#paint10_linear_1_405)"/>
<path d="M228.822 72.763C229.577 72.763 230.27 72.9469 230.9 73.3146C231.531 73.6768 232.022 74.1844 232.376 74.8374C232.729 75.485 232.905 76.2203 232.905 77.0435C232.905 77.9819 232.68 78.8545 232.229 79.6612C231.778 80.4624 231.172 81.0825 230.411 81.5215C229.651 81.9605 228.79 82.18 227.828 82.18C226.638 82.18 225.657 81.7877 224.886 81.0029C224.119 80.2127 223.736 79.2084 223.736 77.9901C223.736 77.0353 223.962 76.1545 224.413 75.3478C224.864 74.5411 225.481 73.91 226.263 73.4545C227.051 72.9935 227.904 72.763 228.822 72.763ZM228.798 73.8579C228.091 73.8579 227.426 74.0362 226.801 74.3929C226.181 74.7496 225.703 75.2408 225.366 75.8664C225.035 76.4865 224.869 77.1725 224.869 77.9243C224.869 78.8682 225.157 79.6365 225.733 80.2291C226.309 80.8163 227.054 81.1099 227.966 81.1099C228.678 81.1099 229.322 80.9398 229.898 80.5996C230.479 80.2538 230.941 79.7572 231.284 79.1096C231.626 78.4621 231.797 77.7679 231.797 77.027C231.797 76.4069 231.669 75.8581 231.414 75.3807C231.159 74.8978 230.797 74.5246 230.33 74.2612C229.863 73.9923 229.352 73.8579 228.798 73.8579Z" fill="url(#paint11_linear_1_405)"/>
<path d="M234.552 81.9495L235.75 72.9935H238.187C238.931 72.9935 239.526 73.2021 239.972 73.6191C240.417 74.0362 240.64 74.5575 240.64 75.1831C240.64 76.1874 240.124 76.8624 239.091 77.2081C239.629 77.4002 240.04 77.7103 240.322 78.1383C240.61 78.5663 240.754 79.0301 240.754 79.5294C240.754 80.188 240.521 80.7587 240.053 81.2416C239.591 81.7191 238.956 81.9578 238.146 81.9578L237.127 81.9495H234.552ZM236.386 76.7883H237.135C237.766 76.7883 238.219 76.7526 238.497 76.6813C238.779 76.6045 239.018 76.4481 239.214 76.2121C239.415 75.9761 239.515 75.6633 239.515 75.2737C239.515 74.9444 239.434 74.6755 239.271 74.467C239.113 74.253 238.909 74.1213 238.66 74.0719C238.41 74.017 238.027 73.9896 237.51 73.9896H236.761L236.386 76.7883ZM235.815 80.9782H237.135L237.771 80.9864C239.026 80.9864 239.654 80.4733 239.654 79.4471C239.654 79.0465 239.545 78.7118 239.328 78.4429C239.116 78.174 238.871 78.0066 238.594 77.9407C238.317 77.8749 237.877 77.842 237.274 77.842H236.231L235.815 80.9782Z" fill="url(#paint12_linear_1_405)"/>
<path d="M251.162 81.9495H250.013L250.184 80.5996C249.157 81.6532 247.981 82.18 246.655 82.18C245.449 82.18 244.457 81.7877 243.68 81.0029C242.903 80.2182 242.515 79.2084 242.515 77.9737C242.515 76.5469 243.017 75.3231 244.022 74.3024C245.033 73.2762 246.22 72.763 247.584 72.763C248.323 72.763 248.97 72.9194 249.524 73.2323C250.084 73.5451 250.562 74.0335 250.958 74.6975L251.162 72.9935H252.344L251.162 81.9495ZM246.777 81.1264C247.511 81.1264 248.179 80.9535 248.782 80.6078C249.385 80.2566 249.863 79.7544 250.217 79.1014C250.57 78.4484 250.746 77.7377 250.746 76.9694C250.746 76.042 250.456 75.2874 249.874 74.7057C249.293 74.124 248.538 73.8332 247.609 73.8332C246.516 73.8332 245.582 74.231 244.805 75.0267C244.028 75.8225 243.639 76.7993 243.639 77.9572C243.639 78.9066 243.93 79.6721 244.511 80.2538C245.093 80.8355 245.848 81.1264 246.777 81.1264Z" fill="url(#paint13_linear_1_405)"/>
<path d="M267.65 81.9495H266.411L267.65 72.6725L258.897 81.9495H258.457L260.079 69.8408H261.268L260.005 79.2825L268.897 69.8408H269.272L267.65 81.9495Z" fill="url(#paint14_linear_1_405)"/>
<path d="M271.676 80.1715C271.954 80.1715 272.187 80.2703 272.377 80.4679C272.573 80.6654 272.671 80.9014 272.671 81.1758C272.671 81.4502 272.573 81.6861 272.377 81.8837C272.187 82.0813 271.954 82.18 271.676 82.18C271.399 82.18 271.163 82.0813 270.967 81.8837C270.777 81.6861 270.682 81.4502 270.682 81.1758C270.682 80.9014 270.777 80.6654 270.967 80.4679C271.163 80.2703 271.399 80.1715 271.676 80.1715Z" fill="url(#paint15_linear_1_405)"/>
<path d="M283.429 69.8408L283.258 71.0179H277.862L277.333 74.9856H282.728L282.573 76.1462H277.178L276.567 80.7889H281.962L281.824 81.9495H275.214L276.819 69.8408H283.429Z" fill="url(#paint16_linear_1_405)"/>
<path d="M285.255 80.1715C285.532 80.1715 285.766 80.2703 285.956 80.4679C286.151 80.6654 286.249 80.9014 286.249 81.1758C286.249 81.4502 286.151 81.6861 285.956 81.8837C285.766 82.0813 285.532 82.18 285.255 82.18C284.978 82.18 284.741 82.0813 284.546 81.8837C284.356 81.6861 284.26 81.4502 284.26 81.1758C284.26 80.9014 284.356 80.6654 284.546 80.4679C284.741 80.2703 284.978 80.1715 285.255 80.1715Z" fill="url(#paint17_linear_1_405)"/>
<path fill-rule="evenodd" clip-rule="evenodd" d="M142.094 88.7656V89.3782H292.918V88.7656H142.094Z" fill="url(#paint18_linear_1_405)" stroke="url(#paint19_linear_1_405)" stroke-width="1.0001"/>
<path fill-rule="evenodd" clip-rule="evenodd" d="M152.703 92.3779V92.9905H278.311V92.3779H152.703Z" fill="url(#paint20_linear_1_405)" stroke="url(#paint21_linear_1_405)" stroke-width="1.0001"/>
<path fill-rule="evenodd" clip-rule="evenodd" d="M15.6585 86.3834L14.9312 84.8402C15.7597 84.4025 16.5285 84.2456 17.2423 84.3695C17.9521 84.4934 18.6109 84.8828 19.2157 85.537C19.9621 86.3456 20.3031 87.2693 20.237 88.3049C20.1701 89.3412 19.6626 90.3076 18.7137 91.2007C17.7092 92.1469 16.687 92.6184 15.6482 92.6192C14.6093 92.6184 13.6963 92.1919 12.9076 91.3375C12.2201 90.5924 11.8783 89.7821 11.8855 88.9051C11.8855 88.3853 12.0655 87.8285 12.4201 87.2347L13.8334 88.1817C13.5856 88.5479 13.4772 88.9308 13.5083 89.3315C13.5378 89.7307 13.7051 90.0936 14.0055 90.4194C14.4229 90.8708 14.9216 91.0873 15.5032 91.0655C16.0831 91.0446 16.7324 90.6962 17.451 90.0187C18.2142 89.3001 18.6309 88.65 18.697 88.0675C18.7664 87.4858 18.595 86.9733 18.1864 86.5307C17.8836 86.2032 17.5211 86.0182 17.0981 85.9771C16.675 85.9352 16.1947 86.0721 15.6585 86.3834V86.3834ZM12.295 80.3158L11.6059 78.8586C12.1962 78.6921 12.7396 78.7009 13.2383 78.8892C13.737 79.0735 14.1735 79.4395 14.5504 79.9835C15.1462 80.8428 15.3095 81.674 15.0395 82.481C14.8204 83.1223 14.3695 83.6848 13.6916 84.1643C12.8798 84.738 12.095 84.9729 11.3382 84.8684C10.5829 84.7662 9.97751 84.3872 9.52339 83.7322C9.0135 82.996 8.8518 82.2461 9.03901 81.4793C9.22623 80.7149 9.82136 79.9907 10.8259 79.306L13.0989 82.5848C13.4764 82.3032 13.7027 81.987 13.7744 81.6354C13.8493 81.2822 13.7808 80.9539 13.5728 80.6529C13.4302 80.4485 13.2565 80.3158 13.0494 80.253C12.8407 80.1927 12.589 80.212 12.295 80.3158V80.3158ZM10.9343 81.1663C10.5646 81.4423 10.3479 81.7408 10.281 82.0642C10.2149 82.3885 10.2747 82.6846 10.4603 82.9518C10.6578 83.2381 10.9247 83.3999 11.2601 83.4402C11.594 83.4804 11.938 83.375 12.2894 83.1215L10.9343 81.1663ZM7.28074 80.1565L4.82625 75.2902L5.96468 74.7044L6.83307 76.4255L11.0187 74.2715L11.7365 75.694L7.55086 77.848L8.41917 79.5699L7.28074 80.1565ZM4.11723 73.87L3.55075 72.3799L5.86745 71.4811L5.29864 69.9837C5.0756 69.3971 4.94569 68.9289 4.90988 68.5821C4.87406 68.2337 4.95608 67.903 5.15529 67.5867C5.3528 67.2689 5.63886 67.0404 6.00613 66.898C6.54387 66.6888 7.02262 66.7177 7.43528 66.9857C7.84722 67.2536 8.19614 67.7605 8.47978 68.5072L9.69628 71.7072L4.11723 73.87ZM8.19534 70.5791L7.66717 69.1879C7.50144 68.7526 7.32381 68.5016 7.1374 68.4348C6.9509 68.3664 6.76135 68.3697 6.56931 68.4436C6.30007 68.5483 6.15431 68.7269 6.13193 68.9771C6.11125 69.2257 6.20131 69.6192 6.40519 70.1567L6.77487 71.1295L8.19534 70.5791ZM1.99008 57.0036L2.4322 58.5404C2.12787 58.6257 1.90726 58.7698 1.77018 58.9733C1.63319 59.1769 1.58063 59.4263 1.6109 59.724C1.65227 60.1207 1.82041 60.4208 2.11435 60.6276C2.4099 60.8344 2.87521 60.9044 3.5093 60.8368C4.21438 60.762 4.70037 60.5898 4.96566 60.3194C5.23175 60.049 5.34323 59.7136 5.30105 59.3104C5.26918 59.0071 5.16004 58.7713 4.9696 58.5968C4.78005 58.4214 4.47331 58.3175 4.05267 58.2821L4.15143 56.6938C4.8772 56.7799 5.44681 57.0358 5.85553 57.4574C6.26659 57.8782 6.51039 58.4744 6.59088 59.2477C6.68247 60.1255 6.48174 60.8553 5.98778 61.4339C5.49382 62.0148 4.76089 62.3568 3.79052 62.4597C2.81066 62.5635 2.01873 62.3824 1.41805 61.9166C0.815027 61.4507 0.468443 60.7717 0.375237 59.8777C0.298773 59.1471 0.395923 58.5493 0.662018 58.0842C0.928917 57.6207 1.37185 57.2603 1.99008 57.0036V57.0036ZM0.0948152 56.2079L0 50.7477L1.27784 50.7251L1.31132 52.657L6.00846 52.5742L6.03559 54.1697L1.33844 54.2526L1.37185 56.1853L0.0948152 56.2079ZM2.93735 49.7427C2.41868 49.6687 1.93269 49.4668 1.48179 49.14C1.03251 48.8126 0.710633 48.3918 0.521807 47.8817C0.331452 47.3707 0.275674 46.8219 0.356887 46.237C0.482771 45.3334 0.877164 44.6334 1.53999 44.1378C2.202 43.6413 2.97638 43.4578 3.86465 43.5842C4.75848 43.7113 5.45961 44.108 5.96782 44.7742C6.4761 45.442 6.66734 46.2177 6.54468 47.1028C6.46813 47.6523 6.27295 48.1552 5.95912 48.6179C5.64441 49.0813 5.23255 49.4088 4.72266 49.6003C4.21277 49.7902 3.61924 49.8393 2.93735 49.7427V49.7427ZM3.24642 48.1327C3.83439 48.2163 4.30283 48.1399 4.65416 47.9017C5.0055 47.666 5.20945 47.341 5.26757 46.9274C5.32496 46.5146 5.21662 46.1461 4.94416 45.8234C4.6701 45.4983 4.23748 45.294 3.64234 45.2095C3.06395 45.1274 2.59712 45.2039 2.24659 45.4405C1.89607 45.6754 1.6913 45.9989 1.634 46.4116C1.57661 46.8252 1.68495 47.1945 1.9574 47.5196C2.22985 47.8455 2.66167 48.0498 3.24642 48.1327V48.1327ZM1.26592 41.3554L1.7726 39.4444L6.17974 39.0839L2.54456 36.5357L3.05043 34.6304L8.82234 36.1922L8.47415 37.5044L4.67405 36.4762L8.09658 38.9262L7.74758 40.2442L3.58737 40.5717L7.38755 41.6L7.03775 42.9172L1.26592 41.3554ZM6.35344 31.8601L5.45164 33.0163C5.0166 32.5987 4.77047 32.1498 4.70833 31.6662C4.65014 31.1826 4.80074 30.596 5.16478 29.9033C5.49704 29.2733 5.8173 28.8452 6.12718 28.6167C6.43707 28.389 6.73745 28.2715 7.03059 28.2682C7.32381 28.2659 7.77309 28.426 8.38014 28.7519L10.0014 29.6426C10.4642 29.8912 10.8188 30.0521 11.0641 30.1245C11.3055 30.1977 11.5883 30.2396 11.9038 30.2517L11.1693 31.6469C11.0569 31.6323 10.8952 31.605 10.6857 31.5608C10.5909 31.5382 10.528 31.5262 10.4953 31.5221C10.6005 31.8891 10.6379 32.2383 10.6108 32.5754C10.5821 32.9117 10.4858 33.2352 10.3217 33.5473C10.0325 34.0953 9.65725 34.4493 9.19758 34.607C8.73549 34.7648 8.27977 34.7221 7.82887 34.4799C7.53171 34.3206 7.30304 34.1058 7.14536 33.8362C6.9868 33.5667 6.91589 33.269 6.9278 32.9439C6.9406 32.6188 7.02898 32.1851 7.19309 31.6469C7.41701 30.9235 7.54209 30.4045 7.57074 30.0948L7.43134 30.0199C7.16202 29.8759 6.93658 29.8405 6.75097 29.9121C6.56697 29.9845 6.37654 30.205 6.18135 30.5767C6.04831 30.8285 5.99494 31.0506 6.01965 31.243C6.04195 31.4352 6.15431 31.6404 6.35344 31.8601V31.8601ZM8.47978 30.5832C8.44388 30.7948 8.365 31.1183 8.24154 31.5551C8.11887 31.9904 8.06631 32.2897 8.07983 32.4539C8.11404 32.7065 8.22882 32.8868 8.42714 32.993C8.62313 33.0984 8.83031 33.1153 9.05012 33.0445C9.27002 32.9737 9.43896 32.8256 9.55921 32.5971C9.69387 32.342 9.73765 32.0564 9.69467 31.7362C9.65958 31.498 9.56485 31.3033 9.4087 31.152C9.30986 31.0506 9.09157 30.9114 8.75698 30.732L8.47978 30.5832ZM7.08242 26.4137L10.0277 21.8338L11.0992 22.5361L10.0571 24.1567L13.9975 26.7411L13.1363 28.08L9.19677 25.4956L8.15469 27.116L7.08242 26.4137ZM12.9689 22.7566C12.5738 22.4091 12.2751 21.9721 12.0727 21.4507C11.8728 20.9285 11.8297 20.3991 11.9468 19.8672C12.0624 19.3338 12.3118 18.843 12.6957 18.3972C13.2884 17.7085 13.9959 17.3383 14.8196 17.2868C15.6426 17.2353 16.3907 17.5073 17.067 18.1019C17.7482 18.6997 18.1234 19.4191 18.1903 20.2567C18.2565 21.0967 17.9983 21.8522 17.4175 22.5265C17.0574 22.9457 16.6225 23.2604 16.1094 23.4751C15.5956 23.6908 15.0738 23.7391 14.5432 23.6192C14.0134 23.4985 13.4884 23.2129 12.9689 22.7566V22.7566ZM14.0963 21.5771C14.5447 21.9697 14.9782 22.1637 15.402 22.158C15.8235 22.1524 16.17 21.9922 16.4416 21.6768C16.7117 21.3622 16.8201 20.9945 16.7651 20.5729C16.7109 20.1505 16.4584 19.7409 16.0042 19.3427C15.5637 18.9556 15.1311 18.7633 14.7097 18.7681C14.289 18.7722 13.9433 18.9315 13.6724 19.2461C13.4016 19.5615 13.2924 19.9308 13.3458 20.3524C13.3983 20.7765 13.6501 21.1852 14.0963 21.5771ZM16.4608 14.6373L20.4577 11.1283L24.378 15.6832L23.1886 16.7276L20.1103 13.1503L18.4843 14.5785L20.2441 16.6239C20.6927 17.1444 20.9476 17.562 21.0105 17.8767C21.0719 18.1904 21.0584 18.4439 20.9699 18.637C20.8831 18.8285 20.6799 19.0667 20.3596 19.3475C20.1693 19.5148 19.896 19.7079 19.5407 19.9308L18.7767 19.0434C18.803 19.0208 18.8707 18.9629 18.9838 18.8744C19.1153 18.7738 19.2148 18.6949 19.2833 18.6345C19.4443 18.4937 19.4985 18.3529 19.4419 18.2121C19.3869 18.073 19.148 17.7591 18.7265 17.27L16.4608 14.6373ZM23.755 12.3714C23.477 11.9225 23.3177 11.4171 23.2755 10.8579C23.2356 10.2995 23.3479 9.78139 23.6132 9.30746C23.8785 8.83028 24.2586 8.4352 24.7549 8.12142C25.5213 7.6379 26.3052 7.49385 27.1075 7.68773C27.9097 7.88169 28.5462 8.36204 29.0211 9.13041C29.4998 9.90366 29.6496 10.7019 29.4712 11.5234C29.2911 12.3457 28.8259 12.9918 28.0754 13.4657C27.6093 13.7602 27.1026 13.9324 26.5498 13.9863C25.9961 14.041 25.483 13.9324 25.0099 13.6612C24.5382 13.3893 24.1192 12.9612 23.755 12.3714ZM25.1747 11.5765C25.4886 12.085 25.8479 12.398 26.2542 12.5171C26.6589 12.6369 27.0374 12.5863 27.3879 12.365C27.7376 12.1437 27.9471 11.8235 28.0172 11.4051C28.0873 10.9843 27.9647 10.5184 27.646 10.0034C27.3361 9.50297 26.9784 9.19154 26.5737 9.07172C26.1706 8.95181 25.7937 9.00173 25.444 9.22219C25.0927 9.44338 24.8824 9.76448 24.8106 10.1844C24.7381 10.6045 24.8609 11.0704 25.1747 11.5765V11.5765ZM29.2625 5.81542L32.9486 4.15788L33.4689 5.33661L31.2278 6.34487L33.1382 10.6793L31.6931 11.3294L29.2625 5.81542ZM34.5475 3.39594L36.015 2.99842L36.9861 6.66028L38.3635 2.3628L39.8629 1.95723L41.4092 7.78674L39.9418 8.18417L38.9531 4.4572L37.5613 8.82792L36.0938 9.22536L34.5475 3.39594ZM42.0848 1.26609L43.6742 1.09709L43.8231 2.53253C43.8574 2.86087 43.9108 3.10141 43.9857 3.25514C44.0605 3.40878 44.1984 3.53511 44.3983 3.62843C44.5983 3.725 44.8429 3.75475 45.1297 3.72419C45.4101 3.69444 45.7168 3.59786 46.0506 3.43373L45.7846 0.873455L47.3572 0.706074L47.9817 6.70849L46.4092 6.87587L46.1598 4.47971C45.5639 4.71066 45.1065 4.84341 44.7856 4.87723C44.3051 4.92869 43.8622 4.86918 43.4543 4.70099C43.0488 4.5328 42.7588 4.29225 42.5819 3.98164C42.4059 3.67029 42.2903 3.24384 42.2338 2.70154L42.0848 1.26609ZM53.0151 4.64149L54.5965 4.87959C54.4029 5.467 54.0914 5.91679 53.6588 6.22976C53.2286 6.54355 52.6837 6.70451 52.0265 6.71581C50.9884 6.73426 50.214 6.406 49.7026 5.72852C49.2994 5.18695 49.0899 4.495 49.0748 3.65981C49.058 2.65886 49.3043 1.87034 49.8125 1.29503C50.3192 0.719733 50.9692 0.42448 51.7612 0.410741C52.6494 0.395459 53.356 0.679493 53.8803 1.26447C54.4037 1.84863 54.665 2.75219 54.665 3.97603L50.7031 4.04602C50.7223 4.51995 50.8561 4.88609 51.1047 5.14273C51.3532 5.40262 51.6608 5.52894 52.0232 5.52252C52.271 5.51846 52.4773 5.44692 52.6447 5.30848C52.8111 5.16769 52.9354 4.9456 53.0151 4.64149V4.64149ZM53.0772 3.02663C53.0573 2.5631 52.9346 2.21477 52.706 1.97821C52.4773 1.74165 52.2001 1.62573 51.8775 1.63142C51.5317 1.63703 51.2497 1.77059 51.029 2.02804C50.8091 2.28476 50.7031 2.63236 50.7151 3.06841L53.0772 3.02663ZM61.5267 3.16173L59.9445 3.25189C59.931 2.93322 59.8417 2.68382 59.6761 2.50278C59.5103 2.32175 59.2817 2.21396 58.9877 2.1777C58.595 2.1286 58.2675 2.2268 58.0022 2.46978C57.7369 2.71357 57.5641 3.15531 57.4868 3.79499C57.3999 4.50548 57.4573 5.02282 57.6589 5.34466C57.8596 5.66657 58.1576 5.85241 58.5567 5.90151C58.8563 5.93849 59.108 5.88378 59.3199 5.73575C59.531 5.58853 59.7007 5.31092 59.8298 4.90454L61.3394 5.35921C61.0925 6.05433 60.7181 6.55647 60.2194 6.86384C59.7215 7.17356 59.0913 7.27981 58.3265 7.18486C57.4589 7.07707 56.8009 6.7158 56.3531 6.09945C55.9038 5.48228 55.7397 4.6849 55.8584 3.70647C55.9787 2.71845 56.3316 1.97975 56.9156 1.49379C57.5003 1.00539 58.234 0.81712 59.1168 0.926539C59.8394 1.01588 60.3939 1.2452 60.7826 1.61207C61.1698 1.97894 61.4183 2.49555 61.5267 3.16173V3.16173ZM63.6013 1.82286L65.1237 2.23484L64.4919 4.61734C64.7516 4.65758 64.9531 4.62701 65.0926 4.52638C65.2304 4.42744 65.4336 4.1804 65.6956 3.7902C66.043 3.26798 66.3553 2.95818 66.6309 2.86006C66.905 2.76105 67.2301 2.76349 67.6076 2.86567C67.7224 2.89623 67.9224 2.96062 68.2028 3.05638L67.9375 4.07984C67.5344 3.97042 67.2667 3.93823 67.1353 3.98489C67.0014 4.03481 66.8166 4.24153 66.5808 4.60604C66.2605 5.09607 65.9163 5.35839 65.5507 5.39213C65.9952 5.65852 66.2916 6.19033 66.4373 6.99098C66.4438 7.03276 66.4541 7.07544 66.4653 7.12291L66.8923 8.9623L65.2511 8.51812L64.9365 6.62728C64.8719 6.24423 64.7947 5.9884 64.707 5.85964C64.617 5.73331 64.4616 5.63918 64.2369 5.57886L63.5774 8.06508L62.0541 7.65237L63.6013 1.82286ZM70.118 3.77573L71.5066 4.39924L69.9793 7.86234L73.7277 5.39864L75.145 6.03588L72.7143 11.5499L71.3265 10.9255L72.8808 7.40052L69.0759 9.91333L67.6873 9.28893L70.118 3.77573ZM73.5325 11.912L76.9924 10.4283L76.7766 6.84213L78.4137 7.87518L78.4399 9.84813L80.2556 9.0379L81.8306 10.0316L78.612 11.3705L78.82 15.2487L77.1748 14.21L77.1247 11.9739L75.1035 12.9033L73.5325 11.912ZM85.9939 13.4593L87.1468 14.5455L85.4817 16.3486C85.692 16.5071 85.8841 16.5756 86.0538 16.5531C86.2218 16.5313 86.5158 16.4098 86.9285 16.1894C87.479 15.8932 87.898 15.7677 88.1865 15.8112C88.4748 15.8546 88.7608 16.0107 89.0468 16.2794C89.1336 16.3615 89.2802 16.5128 89.4834 16.73L88.7743 17.5081C88.4684 17.2201 88.2478 17.0648 88.1099 17.0438C87.9674 17.0246 87.7084 17.1195 87.3308 17.3295C86.8202 17.6095 86.3947 17.6787 86.0561 17.5347C86.3246 17.9812 86.3389 18.5911 86.0951 19.3668C86.0824 19.4078 86.0713 19.4497 86.0593 19.4971L85.5813 21.3228L84.3385 20.1529L84.94 18.3345C85.0603 17.9659 85.1113 17.7029 85.0938 17.5483C85.0738 17.3939 84.9798 17.237 84.8093 17.0768L83.071 18.9588L81.9183 17.8734L85.9939 13.4593ZM91.0871 18.6064L94.4204 22.7631L89.7758 26.5617L88.7839 25.3242L92.4311 22.3423L91.0751 20.651L88.9895 22.3559C88.4581 22.7904 88.0367 23.0326 87.7228 23.0857C87.4105 23.1364 87.1603 23.1139 86.9723 23.0181C86.7851 22.9232 86.5572 22.7107 86.2903 22.3777C86.1318 22.1797 85.9494 21.8965 85.7423 21.5304L86.6465 20.7901C86.668 20.8175 86.7229 20.8875 86.8058 21.005C86.9014 21.1409 86.9763 21.2447 87.0328 21.3163C87.1667 21.4829 87.3037 21.5425 87.4455 21.4902C87.5857 21.4395 87.9044 21.2094 88.4031 20.8014L91.0871 18.6064ZM95.7795 25.028L96.5387 26.3573L93.2883 28.2522L97.7544 28.4839L98.5303 29.8413L93.3552 32.8586L92.596 31.5302L95.9038 29.6007L91.3635 29.3746L90.6043 28.0454L95.7795 25.028ZM99.4329 31.9808L100.026 33.4629L97.9966 34.2908L98.8442 36.4078L100.873 35.5799L101.468 37.0676L95.9277 39.3285L95.3325 37.8408L97.6596 36.8905L96.8127 34.7736L94.4856 35.723L93.8929 34.2417L99.4329 31.9808ZM102.072 39.5772L102.413 41.0722L98.7566 41.9251L102.961 43.4651L103.31 44.9923L97.4867 46.3504L97.145 44.8555L100.867 43.9873L96.5905 42.4304L96.2487 40.9354L102.072 39.5772ZM103.413 47.3876L103.551 48.9735L101.118 49.1883C101.17 49.449 101.267 49.6293 101.408 49.7275C101.547 49.824 101.846 49.9326 102.299 50.0477C102.904 50.1998 103.299 50.3897 103.484 50.6174C103.671 50.8442 103.78 51.1532 103.814 51.5459C103.824 51.6658 103.832 51.8774 103.839 52.1767L102.797 52.2749C102.761 51.8549 102.699 51.5901 102.611 51.4815C102.518 51.3704 102.263 51.2667 101.843 51.1669C101.278 51.0302 100.916 50.7936 100.759 50.458C100.663 50.9714 100.27 51.4348 99.5748 51.8468C99.5381 51.8677 99.5015 51.8918 99.4617 51.9184L97.897 52.9524L97.7488 51.2433L99.3995 50.2979C99.7341 50.1056 99.9461 49.9447 100.035 49.8183C100.123 49.6888 100.156 49.5093 100.136 49.2752L97.5975 49.4998L97.4604 47.913L103.413 47.3876ZM103.557 57.7245L103.066 61.7693L101.797 61.6124L102.096 59.1535L97.4334 58.575L97.6261 56.9892L103.557 57.7245ZM97.2015 60.6565L98.763 60.9068L98.516 62.4831L96.9545 62.2336L97.2015 60.6565ZM96.0328 65.7192L102.652 67.5103L103.286 65.123L104.635 65.4875L102.938 71.8834L101.59 71.5181L102.221 69.1364L95.6018 67.3446L96.0328 65.7192ZM100.344 72.0194L99.6592 73.5723L95.2019 73.1475L98.5105 76.1785L97.8444 77.6895L93.4484 73.38L92.6509 72.6036C92.3896 72.3332 92.2 72.1014 92.0821 71.9107C91.9658 71.7177 91.8885 71.5238 91.8503 71.3266C91.8129 71.1287 91.8121 70.9074 91.8503 70.6612C91.8901 70.4158 91.969 70.1543 92.0917 69.8759C92.2151 69.5959 92.3665 69.3352 92.5434 69.0897L93.7328 69.4695C93.5863 69.678 93.4747 69.8735 93.3934 70.0578C93.2437 70.3965 93.2309 70.6918 93.356 70.9436C93.4811 71.1931 93.6771 71.432 93.944 71.6557L100.344 72.0194ZM96.8199 79.4678L94.0133 84.0042L88.9456 80.8058L89.7805 79.4556L93.7599 81.9669L94.9023 80.1211L92.6263 78.6857C92.0471 78.3195 91.683 77.996 91.5316 77.7136C91.3818 77.4312 91.3213 77.185 91.35 76.9742C91.3779 76.7651 91.503 76.4778 91.7276 76.1141C91.8615 75.8985 92.067 75.6329 92.3426 75.3151L93.3298 75.9379C93.3114 75.9677 93.2628 76.0424 93.1808 76.1607C93.0843 76.2959 93.011 76.4005 92.9632 76.4786C92.8509 76.6604 92.8389 76.8109 92.9345 76.9292C93.0269 77.0466 93.3464 77.2752 93.8914 77.6195L96.8199 79.4678ZM92.3578 86.3336L91.2799 87.5011L89.4651 85.7912L88.3832 86.9628C87.9586 87.423 87.6016 87.7441 87.3125 87.9259C87.0256 88.1093 86.6951 88.1794 86.3238 88.1431C85.9534 88.1069 85.6203 87.9501 85.3264 87.6733C84.9057 87.2766 84.7209 86.83 84.7799 86.3359C84.8388 85.8427 85.14 85.3012 85.6817 84.7138L87.9872 82.2171L92.3578 86.3336ZM87.6415 84.0733L86.6401 85.158C86.3788 85.4412 86.2346 85.6875 86.2043 85.8974C86.1748 86.109 86.2577 86.3062 86.4552 86.4928C86.6663 86.6916 86.887 86.7455 87.1189 86.6538C87.3499 86.5629 87.6614 86.3054 88.0557 85.8781L88.7545 85.1218L87.6415 84.0733ZM87.8112 91.257L86.7333 92.4245L82.3628 88.3089L83.4407 87.1414L87.8112 91.257Z" fill="url(#paint22_linear_1_405)"/>
<path fill-rule="evenodd" clip-rule="evenodd" d="M51.8988 10.4521C74.349 10.4521 92.556 28.8409 92.556 51.5157C92.556 74.1914 74.349 92.5801 51.8988 92.5801C29.4488 92.5801 11.2417 74.1914 11.2417 51.5157C11.2417 28.8409 29.4488 10.4521 51.8988 10.4521V10.4521Z" fill="url(#paint23_linear_1_405)" stroke="white" stroke-width="0.216"/>
<path fill-rule="evenodd" clip-rule="evenodd" d="M52.2491 14.0078C72.8563 14.0078 89.5686 30.8868 89.5686 51.6995C89.5686 72.5132 72.8563 89.3921 52.2491 89.3921C31.6412 89.3921 14.9288 72.5132 14.9288 51.6995C14.9288 30.8868 31.6412 14.0078 52.2491 14.0078V14.0078Z" fill="url(#paint24_linear_1_405)" stroke="white" stroke-width="2.0001"/>
<path fill-rule="evenodd" clip-rule="evenodd" d="M43.5528 28.6247C40.2597 29.7245 38.9365 32.994 38.525 37.0364C38.0251 42.1188 39.3777 59.8339 42.0239 68.7216C42.9353 71.842 44.4348 74.1013 45.5522 74.2202C46.5813 74.3391 49.1098 66.165 49.6098 65.0949C50.1978 63.8468 50.8739 61.2014 51.5503 60.5176C52.7852 59.2694 52.1971 60.2798 51.7854 61.3203C50.7859 59.8637 48.9923 71.3372 48.1396 73.0909C46.5518 76.3307 44.0525 79.3921 41.671 74.161C35.82 61.3795 34.2617 50.62 33.8206 36.4715C33.6148 29.8734 35.967 28.5949 38.2309 28.0603C39.7599 27.7032 41.6123 28.0305 43.5528 28.6247V28.6247Z" fill="white"/>
<path fill-rule="evenodd" clip-rule="evenodd" d="M49.1401 66.4625C49.1401 63.3413 50.1693 59.8045 51.8452 57.7835C52.7862 56.6242 53.8153 57.3671 54.609 58.6157C55.6381 60.3097 58.6078 76.4791 60.813 71.842C64.7529 63.8468 68.9281 51.9279 68.9281 41.8814C68.9281 37.0071 69.0164 32.4297 66.3113 29.6947C64.9588 28.3277 58.5785 29.6057 56.9318 29.9923C55.9322 30.2302 55.0502 30.2894 54.3445 30.2004C57.1672 28.8924 59.931 26.4551 62.9594 26.4253C71.1627 26.3361 70.8686 38.5527 68.5753 50.4414C65.8996 64.3226 61.7245 79.0947 57.9904 76.6278C54.0799 74.0416 53.9329 65.7191 51.8452 61.4393C51.2278 60.1912 50.3164 64.0848 49.4931 67.7405C49.3167 67.2647 49.1697 66.8188 49.1401 66.4625V66.4625Z" fill="white"/>
<path fill-rule="evenodd" clip-rule="evenodd" d="M50.6979 62.3605C51.0507 61.409 51.7563 58.3773 52.903 57.9912V58.3475C52.1385 59.3582 51.9327 60.1013 51.8444 61.3791L51.4034 61.3199L50.6979 62.3605Z" fill="white"/>
<path fill-rule="evenodd" clip-rule="evenodd" d="M49.9041 31.1801C51.139 31.299 52.8737 32.3689 54.2262 32.8446C56.7548 33.6768 59.5775 33.7364 62.459 33.7364C63.0177 33.7364 66.2813 32.4879 65.2817 31.4772C64.723 30.883 63.1351 31.299 62.3414 31.6851C60.2538 32.7253 56.7548 31.8634 54.4615 31.8634C52.8149 31.8634 51.2861 31.2393 49.9041 31.1801V31.1801Z" fill="white"/>
<path fill-rule="evenodd" clip-rule="evenodd" d="M51.9033 30.7354C53.55 30.5275 55.1671 29.5466 56.8135 28.5658C58.8129 27.4066 60.8123 26.2173 62.9587 26.1875C63.488 26.1875 63.9879 26.2173 64.4582 26.3069C66.5457 26.7229 67.9865 28.0901 68.8981 30.111C69.78 32.1024 70.1918 34.7479 70.2211 37.6905C70.2506 41.5845 69.6625 46.043 68.8097 50.4714C67.4279 57.6345 65.6638 65.0065 63.7232 70.1781C62.8999 72.4372 62.0178 74.2796 61.1357 75.4987C60.2242 76.7767 59.2834 77.371 58.3132 77.044C58.1661 77.0146 58.0192 76.9251 57.8426 76.836C55.2847 75.1416 54.3144 71.0997 53.4028 67.2649C52.9324 65.3928 52.4914 63.5794 51.9033 62.1232V61.1125C51.9621 61.1717 51.9916 61.2315 52.0503 61.3205C52.8148 62.8956 53.3146 65.0065 53.8438 67.1464C54.7554 70.8917 55.6963 74.8445 58.1072 76.42C58.2248 76.5091 58.3426 76.5687 58.4602 76.5982C59.1951 76.8654 59.9891 76.3309 60.783 75.2012C61.6355 74.0418 62.4882 72.2288 63.3114 69.9998C65.2227 64.887 66.9868 57.5161 68.3688 50.3824C69.2215 45.9836 69.78 41.5546 69.7507 37.7203C69.7213 34.8076 69.3391 32.2513 68.4863 30.3189C67.6336 28.4168 66.3106 27.1689 64.37 26.7822C63.929 26.6931 63.4585 26.6334 62.9587 26.6633C60.9299 26.6632 58.9893 27.8227 57.0489 28.9519C55.461 29.9029 53.8734 30.8545 52.2267 31.1515C53.7851 31.7163 55.3435 32.1623 56.9018 32.4001C57.1958 32.4592 57.4899 32.4892 57.8133 32.5186C58.3719 32.608 58.96 32.6673 59.548 32.6972C60.6652 32.7266 61.7826 32.6673 62.9292 32.4892L63.047 32.9644C62.3119 33.2322 60.9594 33.262 59.548 33.1725C58.6953 33.1131 57.8426 33.0241 56.99 32.9052C56.9311 32.9052 56.9018 32.8757 56.8431 32.8757C55.2847 32.6673 54.0498 32.4299 54.0204 32.4299C53.3442 32.3105 52.6385 32.1324 51.9033 31.9243V30.7354ZM51.1388 31.1814L51.1976 30.7947C51.433 30.7947 51.6682 30.7649 51.9033 30.7354V31.9243C50.492 31.4784 49.0514 30.914 47.5811 30.3487C44.1999 29.0113 40.8185 27.7034 38.2606 28.298C37.202 28.5359 36.0849 28.9817 35.291 30.1408C34.4678 31.3003 33.9679 33.2322 34.056 36.4717C34.2913 43.5164 34.7616 49.7583 35.9379 55.7921C37.114 61.8256 38.9663 67.6814 41.8771 74.0716C42.3476 75.1122 42.818 75.7955 43.2885 76.2115C43.7589 76.6574 44.1999 76.7767 44.641 76.7171C45.1115 76.6574 45.5525 76.3901 45.964 75.9741C46.6992 75.2311 47.3755 74.1314 47.934 73.0017C48.228 72.3477 48.6691 70.3861 49.169 68.2163C49.8746 65.0065 50.6979 61.3499 51.4034 60.9936C51.5798 60.9044 51.7564 60.9339 51.9033 61.1125V62.1232C51.8152 61.9151 51.7269 61.7365 51.6387 61.5286C51.6094 61.4693 51.6387 61.4095 51.6094 61.4395C51.1096 61.6773 50.3157 65.1847 49.6101 68.3354C49.1101 70.505 48.6691 72.5259 48.3457 73.2097C47.7577 74.3691 47.0813 75.5282 46.2874 76.301C45.7876 76.7767 45.2584 77.1033 44.6997 77.1928C44.1412 77.2819 43.5531 77.1033 42.9945 76.5687C42.4652 76.0931 41.9653 75.3496 41.4654 74.2497C38.5253 67.8596 36.6729 61.9449 35.4968 55.8813C34.3207 49.7877 33.8209 43.576 33.5855 36.5017C33.4975 33.143 34.056 31.1221 34.9088 29.8736C35.7907 28.5951 36.9964 28.1199 38.1723 27.8227C40.8481 27.1986 44.3175 28.5658 47.7577 29.9029C48.8749 30.3487 50.0217 30.7947 51.1388 31.1814Z" fill="white"/>
<path fill-rule="evenodd" clip-rule="evenodd" d="M67.1144 19.3496L64.3952 33.022L76.8807 37.4352L63.7027 35.3776L58.7131 48.4882L61.4323 34.8166L48.9138 30.3865L62.1249 32.4603L67.1144 19.3496Z" fill="white"/>
<defs>
<linearGradient id="paint0_linear_1_405" x1="118.991" y1="42.5952" x2="137.749" y2="-23.9057" gradientUnits="userSpaceOnUse">
<stop stop-color="#FF5700"/>
<stop offset="0.411458" stop-color="#FFB43A"/>
<stop offset="1" stop-color="#FFCC49"/>
</linearGradient>
<linearGradient id="paint1_linear_1_405" x1="172.544" y1="19.914" x2="210.3" y2="-38.4036" gradientUnits="userSpaceOnUse">
<stop stop-color="#FF5700"/>
<stop offset="0.411458" stop-color="#FFB43A"/>
<stop offset="1" stop-color="#FFCC49"/>
</linearGradient>
<linearGradient id="paint2_linear_1_405" x1="118.069" y1="61.1271" x2="125.502" y2="18.1196" gradientUnits="userSpaceOnUse">
<stop stop-color="#FF5700"/>
<stop offset="0.411458" stop-color="#FFB43A"/>
<stop offset="1" stop-color="#FFCC49"/>
</linearGradient>
<linearGradient id="paint3_linear_1_405" x1="148.208" y1="82.18" x2="162.05" y2="34.2751" gradientUnits="userSpaceOnUse">
<stop stop-color="#FF5700"/>
<stop offset="0.411458" stop-color="#FFB43A"/>
<stop offset="1" stop-color="#FFCC49"/>
</linearGradient>
<linearGradient id="paint4_linear_1_405" x1="148.208" y1="82.18" x2="162.05" y2="34.2751" gradientUnits="userSpaceOnUse">
<stop stop-color="#FF5700"/>
<stop offset="0.411458" stop-color="#FFB43A"/>
<stop offset="1" stop-color="#FFCC49"/>
</linearGradient>
<linearGradient id="paint5_linear_1_405" x1="148.208" y1="82.18" x2="162.05" y2="34.2751" gradientUnits="userSpaceOnUse">
<stop stop-color="#FF5700"/>
<stop offset="0.411458" stop-color="#FFB43A"/>
<stop offset="1" stop-color="#FFCC49"/>
</linearGradient>
<linearGradient id="paint6_linear_1_405" x1="148.208" y1="82.18" x2="162.05" y2="34.2751" gradientUnits="userSpaceOnUse">
<stop stop-color="#FF5700"/>
<stop offset="0.411458" stop-color="#FFB43A"/>
<stop offset="1" stop-color="#FFCC49"/>
</linearGradient>
<linearGradient id="paint7_linear_1_405" x1="148.208" y1="82.18" x2="162.05" y2="34.2751" gradientUnits="userSpaceOnUse">
<stop stop-color="#FF5700"/>
<stop offset="0.411458" stop-color="#FFB43A"/>
<stop offset="1" stop-color="#FFCC49"/>
</linearGradient>
<linearGradient id="paint8_linear_1_405" x1="148.208" y1="82.18" x2="162.05" y2="34.2751" gradientUnits="userSpaceOnUse">
<stop stop-color="#FF5700"/>
<stop offset="0.411458" stop-color="#FFB43A"/>
<stop offset="1" stop-color="#FFCC49"/>
</linearGradient>
<linearGradient id="paint9_linear_1_405" x1="148.208" y1="82.18" x2="162.05" y2="34.2751" gradientUnits="userSpaceOnUse">
<stop stop-color="#FF5700"/>
<stop offset="0.411458" stop-color="#FFB43A"/>
<stop offset="1" stop-color="#FFCC49"/>
</linearGradient>
<linearGradient id="paint10_linear_1_405" x1="148.208" y1="82.18" x2="162.05" y2="34.2751" gradientUnits="userSpaceOnUse">
<stop stop-color="#FF5700"/>
<stop offset="0.411458" stop-color="#FFB43A"/>
<stop offset="1" stop-color="#FFCC49"/>
</linearGradient>
<linearGradient id="paint11_linear_1_405" x1="148.208" y1="82.18" x2="162.05" y2="34.2751" gradientUnits="userSpaceOnUse">
<stop stop-color="#FF5700"/>
<stop offset="0.411458" stop-color="#FFB43A"/>
<stop offset="1" stop-color="#FFCC49"/>
</linearGradient>
<linearGradient id="paint12_linear_1_405" x1="148.208" y1="82.18" x2="162.05" y2="34.2751" gradientUnits="userSpaceOnUse">
<stop stop-color="#FF5700"/>
<stop offset="0.411458" stop-color="#FFB43A"/>
<stop offset="1" stop-color="#FFCC49"/>
</linearGradient>
<linearGradient id="paint13_linear_1_405" x1="148.208" y1="82.18" x2="162.05" y2="34.2751" gradientUnits="userSpaceOnUse">
<stop stop-color="#FF5700"/>
<stop offset="0.411458" stop-color="#FFB43A"/>
<stop offset="1" stop-color="#FFCC49"/>
</linearGradient>
<linearGradient id="paint14_linear_1_405" x1="148.208" y1="82.18" x2="162.05" y2="34.2751" gradientUnits="userSpaceOnUse">
<stop stop-color="#FF5700"/>
<stop offset="0.411458" stop-color="#FFB43A"/>
<stop offset="1" stop-color="#FFCC49"/>
</linearGradient>
<linearGradient id="paint15_linear_1_405" x1="148.208" y1="82.18" x2="162.05" y2="34.2751" gradientUnits="userSpaceOnUse">
<stop stop-color="#FF5700"/>
<stop offset="0.411458" stop-color="#FFB43A"/>
<stop offset="1" stop-color="#FFCC49"/>
</linearGradient>
<linearGradient id="paint16_linear_1_405" x1="148.208" y1="82.18" x2="162.05" y2="34.2751" gradientUnits="userSpaceOnUse">
<stop stop-color="#FF5700"/>
<stop offset="0.411458" stop-color="#FFB43A"/>
<stop offset="1" stop-color="#FFCC49"/>
</linearGradient>
<linearGradient id="paint17_linear_1_405" x1="148.208" y1="82.18" x2="162.05" y2="34.2751" gradientUnits="userSpaceOnUse">
<stop stop-color="#FF5700"/>
<stop offset="0.411458" stop-color="#FFB43A"/>
<stop offset="1" stop-color="#FFCC49"/>
</linearGradient>
<linearGradient id="paint18_linear_1_405" x1="142.094" y1="89.3782" x2="142.128" y2="86.8018" gradientUnits="userSpaceOnUse">
<stop stop-color="#FF5700"/>
<stop offset="0.411458" stop-color="#FFB43A"/>
<stop offset="1" stop-color="#FFCC49"/>
</linearGradient>
<linearGradient id="paint19_linear_1_405" x1="142.094" y1="89.3782" x2="142.128" y2="86.8018" gradientUnits="userSpaceOnUse">
<stop stop-color="#FF5700"/>
<stop offset="0.411458" stop-color="#FFB43A"/>
<stop offset="1" stop-color="#FFCC49"/>
</linearGradient>
<linearGradient id="paint20_linear_1_405" x1="152.703" y1="92.9905" x2="152.743" y2="90.4143" gradientUnits="userSpaceOnUse">
<stop stop-color="#FF5700"/>
<stop offset="0.411458" stop-color="#FFB43A"/>
<stop offset="1" stop-color="#FFCC49"/>
</linearGradient>
<linearGradient id="paint21_linear_1_405" x1="152.703" y1="92.9905" x2="152.743" y2="90.4143" gradientUnits="userSpaceOnUse">
<stop stop-color="#FF5700"/>
<stop offset="0.411458" stop-color="#FFB43A"/>
<stop offset="1" stop-color="#FFCC49"/>
</linearGradient>
<linearGradient id="paint22_linear_1_405" x1="-1.51829e-06" y1="92.6192" x2="121.218" y2="50.0693" gradientUnits="userSpaceOnUse">
<stop stop-color="#FF5700"/>
<stop offset="0.411458" stop-color="#FFB43A"/>
<stop offset="1" stop-color="#FFCC49"/>
</linearGradient>
<linearGradient id="paint23_linear_1_405" x1="11.2417" y1="92.5801" x2="107.976" y2="62.9534" gradientUnits="userSpaceOnUse">
<stop stop-color="#FF5700"/>
<stop offset="0.411458" stop-color="#FFB43A"/>
<stop offset="1" stop-color="#FFCC49"/>
</linearGradient>
<linearGradient id="paint24_linear_1_405" x1="14.9288" y1="89.3921" x2="103.722" y2="62.1965" gradientUnits="userSpaceOnUse">
<stop stop-color="#FF5700"/>
<stop offset="0.411458" stop-color="#FFB43A"/>
<stop offset="1" stop-color="#FFCC49"/>
</linearGradient>
</defs>
</svg>
