<svg width="46" height="46" viewBox="0 0 46 46" fill="none" xmlns="http://www.w3.org/2000/svg">
<path fill-rule="evenodd" clip-rule="evenodd" d="M15.2166 6.19364C14.8717 5.89696 14.4306 5.73585 13.9756 5.74033L13.9572 5.74051L8.33332 5.74042C8.07322 5.74075 7.81603 5.79519 7.57811 5.90028C7.34 6.00546 7.12639 6.15906 6.9509 6.35131C6.7754 6.54356 6.64186 6.77025 6.55877 7.01694C6.477 7.25973 6.44586 7.51665 6.46723 7.77186C7.05363 13.2685 8.92523 18.5502 11.9308 23.1897L11.9397 23.2035C14.6709 27.5015 18.3148 31.1455 22.6128 33.8766L22.6274 33.8859C27.2452 36.8806 32.5004 38.7517 37.9715 39.3493C38.2268 39.3704 38.4838 39.3389 38.7266 39.2568C38.974 39.1732 39.2011 39.0388 39.3935 38.8623C39.4565 38.8045 39.5542 38.6938 39.6579 38.5448C39.7623 38.3948 39.8249 38.2752 39.8439 38.2318C39.9331 38.0278 39.9462 37.9945 39.961 37.9365C39.9735 37.8873 40.0009 37.7579 40.0009 37.4654V31.8404C40.0009 31.8249 40.0011 31.8094 40.0015 31.7939C40.0129 31.3341 39.8549 30.8862 39.5576 30.5353C39.2618 30.1861 38.8485 29.9573 38.3957 29.8917C36.4588 29.6355 34.5571 29.1614 32.7267 28.4784L32.7224 28.4768C32.3869 28.3506 32.0222 28.3233 31.6716 28.3981C31.3225 28.4726 31.0019 28.6451 30.7475 28.8955L28.3705 31.2725C27.7737 31.8693 26.8516 31.9938 26.1179 31.5766C21.1303 28.7406 17.0007 24.611 14.1647 19.6235C13.7475 18.8897 13.872 17.9677 14.4688 17.3708L16.8457 14.994C17.0961 14.7396 17.2688 14.4189 17.3432 14.0697C17.4144 13.7361 17.3754 13.316 17.263 13.0147C16.58 11.1843 16.1058 9.28263 15.8496 7.34585C15.7846 6.89806 15.5598 6.48878 15.2166 6.19364ZM13.9489 1.99042C15.3102 1.97947 16.6294 2.46262 17.6618 3.35044C18.6967 4.24047 19.3727 5.47645 19.5637 6.82801L19.5661 6.84524C19.7851 8.50516 20.191 10.135 20.7763 11.7037C21.1248 12.6376 21.2387 13.7832 21.0107 14.8519C20.7864 15.9037 20.2653 16.8691 19.5091 17.6338L19.5018 17.6413L18.1572 18.9858C20.3619 22.4445 23.2968 25.3794 26.7555 27.5841L28.1001 26.2396L28.1075 26.2322C28.8722 25.476 29.8376 24.9549 30.8894 24.7306C31.9404 24.5064 33.0336 24.588 34.0396 24.9657C35.6077 25.5507 37.2368 25.9564 38.8961 26.1753L38.9128 26.1775C40.2791 26.3702 41.5268 27.0584 42.4187 28.1111C43.3051 29.1573 43.7787 30.4909 43.7509 31.8612V37.4654C43.7509 38.0004 43.7001 38.4496 43.595 38.8622C43.5003 39.2339 43.3708 39.5275 43.2975 39.6939C43.2912 39.7082 43.2853 39.7217 43.2798 39.7341C43.0304 40.3046 42.5279 41.0758 41.9286 41.6256C41.3514 42.1551 40.67 42.5582 39.928 42.8092C39.186 43.0601 38.3998 43.1533 37.6196 43.0828L37.5859 43.0794C31.5275 42.4212 25.7079 40.3516 20.5942 37.037C15.837 34.0126 11.8034 29.9789 8.77902 25.2217C5.45274 20.0847 3.38266 14.2366 2.7364 8.15092L2.73352 8.12167C2.66324 7.34392 2.75567 6.56005 3.00493 5.81999C3.25419 5.07992 3.65481 4.39986 4.1813 3.8231C4.70779 3.24635 5.3486 2.78554 6.06293 2.47001C6.77727 2.15448 7.54948 1.99115 8.3304 1.99042L13.9489 1.99042Z" fill="url(#paint0_linear_1_400)"/>
<defs>
<linearGradient id="paint0_linear_1_400" x1="2.71069" y1="43.1056" x2="51.466" y2="28.0511" gradientUnits="userSpaceOnUse">
<stop stop-color="#FF5700"/>
<stop offset="0.411458" stop-color="#FFB43A"/>
<stop offset="1" stop-color="#FFCC49"/>
</linearGradient>
</defs>
</svg>
