<svg width="493" height="94" viewBox="0 0 493 94" fill="none" xmlns="http://www.w3.org/2000/svg">
<path d="M407.547 13.3271H493V49.9769H407.547V13.3271Z" fill="#713D9E"/>
<path d="M425.021 43.8075C421.076 43.8075 418.417 42.3044 418.417 39.025C418.417 38.7068 418.461 38.0685 418.599 37.522L421.075 26.2706H417.407L418.553 21.2598H422.224L424.229 13.3271H430.127L428.096 21.2598H432.59L431.397 26.2706H426.901L424.792 35.8355C424.746 36.1088 424.7 36.4738 424.7 36.747C424.7 37.9319 425.389 38.66 426.857 38.66C427.453 38.66 428.186 38.4335 428.463 38.2052L428.69 42.851C427.819 43.4443 426.443 43.8075 425.021 43.8075ZM443.416 43.8075C436.351 43.8075 432.451 39.5716 432.451 33.8308C432.451 26.9538 437.773 20.7133 445.251 20.7133C452.315 20.7133 456.259 24.994 456.259 30.7348C456.259 37.5669 450.938 43.8075 443.416 43.8075ZM443.645 38.66C447.544 38.66 450.205 34.9707 450.205 31.0081C450.205 27.8186 448.277 25.8607 445.066 25.8607C441.122 25.8607 438.462 29.5949 438.462 33.5126C438.462 36.7021 440.387 38.66 443.645 38.66ZM471.489 43.8075C468.461 43.8075 465.892 42.5328 464.424 40.3446L461.902 51.6428H456.077L462.864 21.2598H468.69L468.049 23.9926C469.929 21.8064 472.085 20.7133 474.746 20.7133C479.7 20.7133 483.14 23.9926 483.14 29.8233C483.14 36.4288 479.011 43.8075 471.489 43.8075ZM470.525 38.66C474.379 38.66 477.039 35.0624 477.039 31.0081C477.039 27.8635 474.929 25.8607 472.131 25.8607C470.067 25.8607 468.278 26.9987 467.039 28.5018L465.34 36.1556C466.306 37.6137 468.186 38.66 470.525 38.66Z" fill="white"/>
<path d="M98.565 71.9769C91.8679 71.9769 87.0543 69.6896 83.8101 66.3391L87.839 60.5926C89.2711 62.1117 90.9931 63.3195 92.9002 64.1427C94.8073 64.9658 96.8597 65.387 98.9324 65.3807C103.013 65.3807 105.002 63.4658 105.002 61.4443C105.002 55.1682 84.9087 59.477 84.9087 46.1255C84.9087 40.22 89.931 35.3271 98.1477 35.3271C103.693 35.3271 108.298 37.0305 111.75 40.2743L107.618 45.8055C104.793 43.1475 101.026 41.9234 97.4663 41.9234C94.2757 41.9234 92.4957 43.359 92.4957 45.4873C92.4957 51.1251 112.535 47.3478 112.535 60.5926C112.535 67.084 107.984 71.9769 98.565 71.9769ZM133.099 71.3386H125.617V42.5074H115.414V35.8587H143.251V42.5074H133.099V71.3405V71.3386ZM179.053 71.3386H170.578L168.431 65.3283H153.467L151.27 71.3386H142.793L156.292 35.8587H165.606L179.053 71.3386ZM166.39 58.6797L160.949 43.4133L155.507 58.6797H166.39ZM210.552 71.3386H202.023L195.169 58.7321H189.728V71.3386H182.297V35.8587H198.622C205.897 35.8587 210.343 40.6992 210.343 47.2954C210.343 53.5715 206.471 56.9239 202.704 57.828L210.552 71.3386ZM197.523 52.0835C200.505 52.0835 202.756 50.2734 202.756 47.2954C202.756 44.3174 200.505 42.5074 197.523 42.5074H189.728V52.0835H197.523ZM231.483 71.3386H223.999V42.5074H213.796V35.8587H241.633V42.5074H231.483V71.3405V71.3386ZM258.796 71.9769C252.098 71.9769 247.285 69.6896 244.041 66.3391L248.07 60.5926C249.501 62.1115 251.223 63.3192 253.13 64.1423C255.037 64.9654 257.089 65.3868 259.161 65.3807C263.242 65.3807 265.23 63.4658 265.23 61.4443C265.23 55.1682 245.139 59.477 245.139 46.1255C245.139 40.22 250.162 35.3271 258.378 35.3271C263.923 35.3271 268.528 37.0305 271.981 40.2743L267.847 45.8055C265.022 43.1475 261.255 41.9234 257.697 41.9234C254.504 41.9234 252.726 43.359 252.726 45.4873C252.726 51.1251 272.766 47.3478 272.766 60.5926C272.766 67.084 268.214 71.9769 258.796 71.9769ZM315.62 71.3386H308.136V46.498L298.3 71.3386H295.056L285.218 46.498V71.3386H277.788V35.8587H288.202L296.677 57.2964L305.154 35.8587H315.62V71.3405V71.3386ZM329.014 71.3386H322.369V35.8587H329.016V71.3405L329.014 71.3386ZM357.949 71.3386H335.764V35.8587H343.195V64.69H357.949V71.3386ZM387.827 71.3386H363.131V35.8587H387.827V42.5074H370.561V50.0076H387.461V56.6581H370.561V64.6881H387.827V71.3386Z" fill="black"/>
<path opacity="0.6" d="M87.7947 90.9235C86.8585 90.9235 86.0166 90.4986 85.4183 89.6806V93.6338H83.8101V83.1256H85.4183V84.1663C85.6907 83.7858 86.0479 83.4761 86.4609 83.2623C86.8739 83.0486 87.331 82.937 87.7947 82.9365C89.7094 82.9365 91.074 84.419 91.074 86.9234C91.074 89.4279 89.7094 90.9235 87.7947 90.9235ZM87.3183 89.4597C88.5923 89.4597 89.4029 88.404 89.4029 86.9234C89.4029 85.4578 88.5905 84.4021 87.3183 84.4021C86.5686 84.4021 85.771 84.8588 85.4183 85.426V88.4358C85.771 88.9862 86.5668 89.4597 87.3183 89.4597ZM97.8319 90.9235C95.6088 90.9235 93.9544 89.3324 93.9544 86.9234C93.9544 84.7185 95.5165 82.9365 97.7082 82.9365C99.9313 82.9365 101.355 84.6866 101.355 87.0807V87.4737H95.6402C95.7621 88.6249 96.6059 89.5702 98 89.5702C98.7201 89.5702 99.5787 89.2707 100.099 88.7353L100.834 89.821C100.099 90.5454 99.0118 90.9253 97.8319 90.9253V90.9235ZM99.7929 86.3095C99.7615 85.411 99.1651 84.2917 97.7082 84.2917C96.3289 84.2917 95.7011 85.3792 95.6254 86.3095H99.7929ZM106.244 90.7344H104.697V83.1256H106.305V88.2468L109.706 83.1256H111.317V90.7344H109.706V85.4747L106.244 90.7344ZM110.687 80.9374C110.074 81.7872 109.11 82.3226 108.006 82.3226C106.918 82.3226 105.938 81.7872 105.31 80.9374L106.045 80.3066C106.488 80.9374 107.164 81.3455 108.006 81.3455C108.818 81.3455 109.507 80.9524 109.952 80.3066L110.687 80.9374ZM118.104 90.7344H116.496V84.5762H114.382V83.1256H120.235V84.5762H118.104V90.7344ZM124.847 90.7344H123.3V83.1256H124.908V88.2468L128.309 83.1256H129.919V90.7344H128.309V85.4747L124.847 90.7344ZM135.359 90.7344H133.751V83.1256H135.359V86.1204H138.76V83.1256H140.37V90.7344H138.76V87.5692H135.359V90.7344ZM149.809 83.1256V84.5762H145.81V90.7344H144.202V83.1256H149.809ZM161.931 90.9235C159.679 90.9235 158.1 89.2388 158.1 86.9234C158.1 84.623 159.679 82.9365 161.931 82.9365C163.371 82.9365 164.245 83.5673 164.765 84.2917L163.707 85.3006C163.523 85.0164 163.271 84.7847 162.973 84.6274C162.676 84.4702 162.344 84.3926 162.009 84.4021C160.659 84.4021 159.771 85.4428 159.771 86.9234C159.771 88.4022 160.659 89.4597 162.007 89.4597C162.727 89.4597 163.294 89.1434 163.707 88.5613L164.765 89.5702C164.245 90.2945 163.371 90.9235 161.931 90.9235ZM170.879 90.7363H169.273V84.5743H167.157V83.1237H173.01V84.5743H170.879V90.7325V90.7363ZM179.415 90.9235C177.07 90.9235 175.615 89.1134 175.615 86.9234C175.615 84.7484 177.07 82.9365 179.415 82.9365C181.79 82.9365 183.232 84.7484 183.232 86.9234C183.232 89.1134 181.792 90.9235 179.415 90.9235ZM179.415 89.4597C180.794 89.4597 181.561 88.2786 181.561 86.9234C181.561 85.5832 180.794 84.4021 179.415 84.4021C178.052 84.4021 177.286 85.5832 177.286 86.9234C177.286 88.2786 178.052 89.4597 179.415 89.4597ZM194.892 90.7344H193.284V85.4428L191.077 90.7344H190.433L188.212 85.4428V90.7344H186.601V83.1256H188.701L190.754 88.0409L192.778 83.1256H194.892V90.7344ZM204.852 90.7344H203.245V89.9164C202.691 90.5622 201.835 90.9235 200.854 90.9235C199.643 90.9235 198.278 90.0886 198.278 88.404C198.278 86.6558 199.643 85.9314 200.854 85.9314C201.849 85.9314 202.708 86.2608 203.243 86.9066V85.7723C203.243 84.8925 202.538 84.3553 201.512 84.3553C200.684 84.3553 199.964 84.6698 199.322 85.3156L198.662 84.1663C199.521 83.3315 200.592 82.9365 201.772 82.9365C203.411 82.9365 204.852 83.6478 204.852 85.6937V90.7344ZM201.482 89.7892C202.187 89.7892 202.876 89.5215 203.243 89.003V87.8518C202.874 87.3334 202.187 87.0657 201.482 87.0657C200.577 87.0657 199.903 87.601 199.903 88.4358C199.903 89.2538 200.577 89.7892 201.482 89.7892ZM211.641 90.7344H210.033V84.5762H207.917V83.1256H213.77V84.5762H211.641V90.7344ZM220.177 90.9235C217.832 90.9235 216.377 89.1134 216.377 86.9234C216.377 84.7484 217.832 82.9365 220.177 82.9365C222.552 82.9365 223.992 84.7484 223.992 86.9234C223.992 89.1134 222.552 90.9235 220.177 90.9235ZM220.177 89.4597C221.556 89.4597 222.323 88.2786 222.323 86.9234C222.323 85.5832 221.556 84.4021 220.177 84.4021C218.813 84.4021 218.046 85.5832 218.046 86.9234C218.046 88.2786 218.813 89.4597 220.177 89.4597ZM226.597 90.9235V89.572C227.225 89.572 227.578 88.8308 227.823 86.8298L228.266 83.1274H233.983V90.7363H232.375V84.5781H229.692L229.433 87.0189C229.142 89.7761 228.222 90.9253 226.597 90.9253V90.9235ZM241.155 90.9235C238.81 90.9235 237.355 89.1134 237.355 86.9234C237.355 84.7484 238.81 82.9365 241.155 82.9365C243.529 82.9365 244.969 84.7484 244.969 86.9234C244.969 89.1134 243.529 90.9235 241.155 90.9235ZM241.155 89.4597C242.534 89.4597 243.3 88.2786 243.3 86.9234C243.3 85.5832 242.534 84.4021 241.155 84.4021C239.792 84.4021 239.026 85.5832 239.026 86.9234C239.026 88.2786 239.792 89.4597 241.155 89.4597ZM253.95 83.1256V84.5762H249.951V90.7344H248.341V83.1256H253.95ZM258.563 90.7344H257.016V83.1256H258.624V88.2468L262.025 83.1256H263.635V90.7344H262.025V85.4747L258.563 90.7344ZM267.204 83.1256H268.814V85.1752C268.814 86.3544 269.396 86.7175 270.576 86.7175C271.281 86.7175 271.818 86.6071 272.201 86.4349V83.1256H273.809V90.7344H272.201V87.7751C271.71 88.0278 270.96 88.185 270.072 88.185C267.985 88.185 267.206 87.3352 267.206 85.7742V83.1274L267.204 83.1256ZM281.058 90.9235C278.837 90.9235 277.181 89.3324 277.181 86.9234C277.181 84.7185 278.744 82.9365 280.936 82.9365C283.157 82.9365 284.583 84.6866 284.583 87.0807V87.4737H278.866C278.99 88.6249 279.832 89.5702 281.226 89.5702C281.946 89.5702 282.805 89.2707 283.326 88.7353L284.06 89.821C283.326 90.5454 282.238 90.9253 281.058 90.9253V90.9235ZM283.019 86.3095C282.989 85.411 282.391 84.2917 280.936 84.2917C279.557 84.2917 278.927 85.3792 278.85 86.3095H283.019ZM291.295 90.9235C289.042 90.9235 287.463 89.2388 287.463 86.9234C287.463 84.623 289.042 82.9365 291.295 82.9365C292.735 82.9365 293.608 83.5673 294.129 84.2917L293.071 85.3006C292.887 85.0164 292.634 84.7847 292.337 84.6274C292.04 84.4702 291.708 84.3926 291.372 84.4021C290.023 84.4021 289.134 85.4428 289.134 86.9234C289.134 88.4022 290.021 89.4597 291.37 89.4597C292.091 89.4597 292.657 89.1434 293.071 88.5613L294.129 89.5702C293.608 90.2945 292.735 90.9235 291.295 90.9235ZM304.212 90.7363H302.189L299.921 87.601L298.895 88.6867V90.7344H297.286V83.1256H298.895V86.7962L302.159 83.1274H304.152L301.072 86.5772L304.211 90.7344L304.212 90.7363ZM308.64 90.7363H307.093V83.1256H308.703V88.2468L312.104 83.1256H313.712V90.7344H312.104V85.4747L308.64 90.7363ZM324.027 90.7363H322.217L320.302 87.9305L318.371 90.7344H316.58L319.29 86.828L316.731 83.1256H318.541L320.302 85.7086L322.049 83.1256H323.859L321.298 86.828L324.027 90.7363ZM339.504 90.7363H337.48L335.212 87.601L334.186 88.6867V90.7344H332.577V83.1256H334.186V86.7962L337.45 83.1274H339.443L336.361 86.5772L339.504 90.7363ZM341.618 90.9235V89.572C342.245 89.572 342.598 88.8308 342.844 86.8298L343.287 83.1274H349.003V90.7363H347.395V84.5781H344.714L344.452 87.0189C344.162 89.7761 343.243 90.9253 341.618 90.9253V90.9235ZM354.382 90.7363H352.835V83.1256H354.443V88.2468L357.846 83.1256H359.454V90.7344H357.846V85.4747L354.382 90.7363ZM364.894 90.7363H363.286V83.1256H364.894V86.1204H368.297V83.1256H369.905V90.7344H368.297V87.5692H364.894V90.7363ZM375.284 90.7363H373.737V83.1256H375.345V88.2468L378.748 83.1256H380.356V90.7344H378.748V85.4747L375.284 90.7363ZM391.113 90.7363H389.092L386.822 87.601L385.796 88.6867V90.7344H384.187V83.1256H385.796V86.7962L389.06 83.1274H391.052L387.973 86.5772L391.113 90.7363Z" fill="black"/>
<path d="M64.09 55.3179C64.09 73.7196 49.7431 88.6359 32.045 88.6359C14.345 88.6359 0 73.7196 0 55.3179C0 36.9163 14.3469 22 32.045 22C49.7413 22 64.09 36.9163 64.09 55.3179Z" fill="#713D9E"/>
</svg>
